<svg xmlns="http://www.w3.org/2000/svg" viewBox="0 0 512 512" width="100%" height="100%">
  <defs>
    <linearGradient id="iconGradient" x1="0%" y1="0%" x2="100%" y2="100%">
      <stop offset="0%" stop-color="#6366f1" />
      <stop offset="100%" stop-color="#d946ef" />
    </linearGradient>
  </defs>
  <!-- Background Rounded Rect -->
  <rect width="440" height="440" x="36" y="36" rx="100" fill="#050508" stroke="url(#iconGradient)" stroke-width="12" />
  
  <!-- Camera + AI Icon -->
  <g fill="none" stroke="url(#iconGradient)" stroke-width="28" stroke-linecap="round" stroke-linejoin="round" transform="translate(48, 48)">
    <!-- Camera body -->
    <path d="M310,250 a15,15 0 0,1 -15,15 H120 a15,15 0 0,1 -15,-15 V140 a15,15 0 0,1 15,-15 h45 l20,-30 h60 l20,30 h45 a15,15 0 0,1 15,15 z" />
    <!-- Lens -->
    <circle cx="207" cy="195" r="45" />
    <!-- Sparkle/AI icon -->
    <path d="M290,95 L297,110 L312,117 L297,124 L290,139 L283,124 L268,117 L283,110 Z" fill="url(#iconGradient)" stroke="none" />
  </g>
</svg>
